<?xml version="1.0" standalone="no"?><!DOCTYPE svg PUBLIC "-//W3C//DTD SVG 1.1//EN" "http://www.w3.org/Graphics/SVG/1.1/DTD/svg11.dtd"><svg t="1653640778579" class="icon" viewBox="0 0 1024 1024" version="1.1" xmlns="http://www.w3.org/2000/svg" p-id="9816" data-darkreader-inline-fill="" xmlns:xlink="http://www.w3.org/1999/xlink" width="200" height="200"><defs><style type="text/css"></style></defs><path d="M788.472 284.612l-35.616-5.224c11.332-77.324-0.748-132.16-35.888-162.992-59.696-52.376-169.288-22.116-170.4-21.804l-9.872-34.62c5.248-1.5 129.364-35.976 203.896 29.252 45 39.392 61.112 105.128 47.88 195.388zM82.428 459.952c-1.32-6.896-31.468-169.816 39.208-255.288C149.436 171.044 188.512 154 237.788 154c121.552 0 122.888 0.932 128.512 4.852l-20.596 29.528a17.412 17.412 0 0 0 7.512 2.996c-1.232-0.14-14.956-1.376-115.424-1.376-38.54 0-67.444 12.284-88.368 37.56-59.908 72.364-31.916 224.116-31.628 225.64l-35.368 6.752z" fill="#65C8D0" p-id="9817" data-darkreader-inline-fill="" style="--darkreader-inline-fill:#287d83;"></path><path d="M119.316 720.676v277.544h308.792V696" fill="#FDD089" p-id="9818" data-darkreader-inline-fill="" style="--darkreader-inline-fill:#794b02;"></path><path d="M124 794.48s130.244 100.48 294.108 0V688H124v106.48z" fill="#F2BE7E" p-id="9819" data-darkreader-inline-fill="" style="--darkreader-inline-fill:#7c4a0c;"></path><path d="M446.108 1016.22H101.316v-295.544h36v259.544h272.792V696h36z" fill="#6E6E96" p-id="9820" data-darkreader-inline-fill="" style="--darkreader-inline-fill:#545475;"></path><path d="M588.672 153.268l247.316 188.22c25.812 20.56 33.68 60.904 17.476 89.656l-11.172 19.832c-16.208 28.752-54.504 42.184-85.112 29.86L516.376 383.88" fill="#FDD089" p-id="9821" data-darkreader-inline-fill="" style="--darkreader-inline-fill:#794b02;"></path><path d="M617.212 247.744l225.688 142.56 3.448-38.344-216.032-144.376z" fill="#FFFFFF" opacity=".4" p-id="9822" data-darkreader-inline-fill="" style="--darkreader-inline-fill:#181a1b;"></path><path d="M785.844 435.596s41.288 15.156 57.056-27.552l-19.196 47.1-37.86-19.548z" fill="#FABE78" p-id="9823" data-darkreader-inline-fill="" style="--darkreader-inline-fill:#faba6f;"></path><path d="M630.316 207.584L589.064 334l234.64 121.14-30.752 30.268-260.612-95.104L598 167.076z" fill="#FABE78" p-id="9824" data-darkreader-inline-fill="" style="--darkreader-inline-fill:#824805;"></path><path d="M781.064 503.34c-10.412 0-20.804-1.864-30.6-5.812l-240.804-96.956 13.444-33.396 240.804 96.956c22.22 8.948 50.936-1.124 62.712-22l11.164-19.828c11.896-21.092 5.928-51.656-13.008-66.74l-247-187.976 21.804-28.648 247.312 188.22c32.808 26.128 42.652 76.628 22.252 112.816l-11.168 19.828c-15.336 27.208-46.148 43.536-76.912 43.536z" fill="#6E6E96" p-id="9825" data-darkreader-inline-fill="" style="--darkreader-inline-fill:#545475;"></path><path d="M129.592 423.528l284.632-327.708c28.1-33.856 82.456-43.884 120.788-22.28l6.64 3.744c38.328 21.6 57.328 73.088 42.216 114.412l-115.512 328.944" fill="#FDD089" p-id="9826" data-darkreader-inline-fill="" style="--darkreader-inline-fill:#794b02;"></path><path d="M290 351.96L475.892 72l-47.784 11.3L199.96 369.96z" fill="#FFFFFF" opacity=".4" p-id="9827" data-darkreader-inline-fill="" style="--darkreader-inline-fill:#181a1b;"></path><path d="M512 83.3s40.28 21.228 5.756 91.684L562.668 110 512 83.3z" fill="#FABE78" p-id="9828" data-darkreader-inline-fill="" style="--darkreader-inline-fill:#faba6f;"></path><path d="M410.108 402.068L548.572 110s35.952 10.48 22.228 57.076l-107.62 313.976-53.072-78.984z" fill="#FABE78" p-id="9829" data-darkreader-inline-fill="" style="--darkreader-inline-fill:#824805;"></path><path d="M485.332 526.6l-33.964-11.928 115.516-328.944c12.124-33.16-3.512-75.54-34.072-92.764l-6.64-3.744c-30.68-17.288-75.604-9.004-98.1 18.096l-0.26 0.308-284.632 327.708L116 411.724l284.504-327.564c33.504-40.188 97.756-51.988 143.336-26.304l6.64 3.744c45.768 25.8 68.332 86.928 50.284 136.276l-115.432 328.724zM991.696 546.836h-76.288l-91.704-91.696 88.844-88.836h83.148v36h-68.244l-52.836 52.836 55.7 55.696h61.38z" fill="#6E6E96" p-id="9830" data-darkreader-inline-fill="" style="--darkreader-inline-fill:#545475;"></path><path d="M268.632 577.22m-207.26 0a207.26 207.26 0 1 0 414.52 0 207.26 207.26 0 1 0-414.52 0Z" fill="#FF9999" p-id="9831" data-darkreader-inline-fill="" style="--darkreader-inline-fill:#700000;"></path><path d="M272.632 573.22m-44.78 0a44.78 44.78 0 1 0 89.56 0 44.78 44.78 0 1 0-89.56 0Z" fill="#DFE8FB" p-id="9832" data-darkreader-inline-fill="" style="--darkreader-inline-fill:#bbd8f7;"></path><path d="M272.632 636c-34.616 0-62.78-28.164-62.78-62.78s28.164-62.776 62.78-62.776 62.78 28.16 62.78 62.776S307.248 636 272.632 636z m0-89.564a26.812 26.812 0 0 0-26.78 26.78 26.812 26.812 0 0 0 26.78 26.78c14.768 0 26.78-12.016 26.78-26.78s-12.012-26.78-26.78-26.78z" fill="#6E6E96" p-id="9833" data-darkreader-inline-fill="" style="--darkreader-inline-fill:#999083;"></path><path d="M80.992 922h386.9v76.22H80.992z" fill="#FDD089" p-id="9834" data-darkreader-inline-fill="" style="--darkreader-inline-fill:#794b02;"></path><path d="M137.316 940H240v40.22H137.316z" fill="#FFFFFF" opacity=".4" p-id="9835" data-darkreader-inline-fill="" style="--darkreader-inline-fill:#e8e6e3;"></path><path d="M348 940h101.892v40.22H348z" fill="#8B5C29" opacity=".3" p-id="9836" data-darkreader-inline-fill="" style="--darkreader-inline-fill:#d7a876;"></path><path d="M467.892 1016.22H80.992a18.004 18.004 0 0 1-18-18V922c0-9.936 8.06-18 18-18h386.9c9.94 0 18 8.064 18 18v76.22c0 9.936-8.06 18-18 18z m-368.9-36h350.9V940H98.992v40.22z" fill="#6E6E96" p-id="9837" data-darkreader-inline-fill="" style="--darkreader-inline-fill:#545475;"></path><path d="M179.108 822.964V904H240v-66.528z" fill="#FFFFFF" opacity=".4" p-id="9838" data-darkreader-inline-fill="" style="--darkreader-inline-fill:#e8e6e3;"></path><path d="M348 822.964V904h62.108v-104.764z" fill="#F2BE7E" p-id="9839" data-darkreader-inline-fill="" style="--darkreader-inline-fill:#f1ba76;"></path><path d="M267.18 783.572c108.244 0 195.996-87.752 195.996-196 0-61.312-28.172-116.04-72.264-151.98 31.216 31.488 50.512 74.82 50.512 122.668 0 96.232-78.012 174.244-174.244 174.244s-174.248-78.012-174.248-174.244c0-47.844 19.296-91.172 50.512-122.668-44.088 35.94-72.264 90.66-72.264 151.98 0 108.248 87.752 196 196 196z" fill="#6E6E96" opacity=".2" p-id="9840" data-darkreader-inline-fill="" style="--darkreader-inline-fill:#545475;"></path><path d="M268.632 802.48c-124.208 0-225.26-101.052-225.26-225.26 0-124.208 101.052-225.256 225.26-225.256 124.208 0 225.26 101.052 225.26 225.256 0 124.208-101.052 225.26-225.26 225.26z m0-414.52c-104.356 0-189.26 84.904-189.26 189.256 0 104.36 84.904 189.26 189.26 189.26 104.36 0 189.26-84.904 189.26-189.26S372.992 387.96 268.632 387.96z" fill="#6E6E96" p-id="9841" data-darkreader-inline-fill="" style="--darkreader-inline-fill:#545475;"></path><path d="M267.888 424.472c88.436 0 161.148 67.304 169.72 153.488 0.56-5.62 0.852-11.32 0.852-17.084 0-94.204-76.368-170.572-170.572-170.572-94.204 0-170.572 76.368-170.572 170.572 0 5.768 0.296 11.464 0.852 17.084 8.572-86.18 81.284-153.488 169.72-153.488z" fill="#FFFFFF" opacity=".3" p-id="9842" data-darkreader-inline-fill="" style="--darkreader-inline-fill:#181a1b;"></path><path d="M982.964 587.264l25.452 25.452-74 74-25.452-25.452z" fill="#FBB03B" opacity=".3" p-id="9843" data-darkreader-inline-fill="" style="--darkreader-inline-fill:#fbb444;"></path><path d="M945.928 231.752l62.488 62.488-25.452 25.456-62.488-62.488z" fill="#FBB03B" opacity=".2" p-id="9844" data-darkreader-inline-fill="" style="--darkreader-inline-fill:#fbb444;"></path><path d="M785.844 582h57.056v36h-57.056z" fill="#FBB03B" opacity=".2" p-id="9845" data-darkreader-inline-fill="" style="--darkreader-inline-fill:#fbb444;"></path></svg>